<?xml version="1.0" standalone="no"?>
<!DOCTYPE svg PUBLIC "-//W3C//DTD SVG 20010904//EN"
 "http://www.w3.org/TR/2001/REC-SVG-20010904/DTD/svg10.dtd">
<svg version="1.0" xmlns="http://www.w3.org/2000/svg"
 width="2047.000000pt" height="2047.000000pt" viewBox="0 0 2047.000000 2047.000000"
 preserveAspectRatio="xMidYMid meet">
<metadata>
Created by potrace 1.11, written by Peter Selinger 2001-2013
</metadata>
<g transform="translate(0.000000,2047.000000) scale(0.100000,-0.100000)"
fill="#000000" stroke="none">
<path d="M2802 20089 c-299 -25 -646 -113 -937 -238 -1045 -450 -1763 -1447
-1855 -2575 -15 -185 -14 -13941 1 -14109 12 -137 65 -417 103 -550 148 -506
405 -942 776 -1317 80 -81 161 -160 180 -176 57 -49 229 -177 310 -232 76 -51
377 -222 392 -222 4 0 41 -15 80 -33 280 -129 655 -222 993 -247 108 -8 2190
-10 7495 -8 l7345 3 140 23 c678 111 1244 387 1696 828 138 134 261 269 308
338 8 12 18 23 21 26 21 16 188 275 247 383 38 70 73 124 78 120 4 -5 5 -3 1
4 -3 6 12 53 35 105 105 236 177 476 225 743 l29 160 0 7115 0 7115 -24 140
c-95 567 -300 1030 -651 1470 -363 454 -873 806 -1442 995 -129 43 -346 95
-513 122 l-140 23 -7395 1 c-4067 1 -7442 -3 -7498 -7z"/>
</g>
</svg>
