<?xml version="1.0" standalone="no"?>
<!DOCTYPE svg PUBLIC "-//W3C//DTD SVG 20010904//EN"
 "http://www.w3.org/TR/2001/REC-SVG-20010904/DTD/svg10.dtd">
<svg version="1.0" xmlns="http://www.w3.org/2000/svg"
 width="260.000000pt" height="260.000000pt" viewBox="0 0 260.000000 260.000000"
 preserveAspectRatio="xMidYMid meet">
<metadata>
Created by potrace 1.11, written by Peter Selinger 2001-2013
</metadata>
<g transform="translate(0.000000,260.000000) scale(0.100000,-0.100000)"
fill="#000000" stroke="none">
<path d="M54 2581 c-17 -11 -36 -34 -43 -52 -8 -23 -11 -365 -11 -1231 0
-1070 2 -1204 16 -1233 32 -68 -50 -64 1294 -62 1322 2 1239 -2 1274 58 14 25
16 140 16 1233 0 1020 -2 1212 -14 1241 -29 69 57 65 -1288 65 -1175 0 -1214
-1 -1244 -19z"/>
</g>
</svg>
